<svg width="469" height="385" viewBox="0 0 469 385" fill="none" xmlns="http://www.w3.org/2000/svg">
<rect y="83.0392" width="452.941" height="301.961" rx="20" fill="#4E4F52"/>
<path d="M383.549 83.0392C383.51 83.978 383.49 84.9221 383.49 85.8703C383.49 123.393 413.909 153.811 451.432 153.811C451.936 153.811 452.439 153.804 452.941 153.793V315.567C452.439 315.556 451.936 315.549 451.432 315.549C413.909 315.549 383.49 345.968 383.49 383.49C383.49 383.995 383.497 384.498 383.508 385H67.9238C67.9348 384.498 67.9414 383.995 67.9414 383.49C67.9414 345.968 37.5229 315.549 0 315.549V150.98C37.2033 150.949 67.4081 121.016 67.8779 83.9171L67.8838 83.0392H383.549Z" fill="#6EB8E9"/>
<path d="M317.059 205.137C317.059 188.569 330.49 175.137 347.059 175.137H452.941V295.922H347.059C330.49 295.922 317.059 282.49 317.059 265.922V205.137Z" fill="white"/>
<path d="M329.137 213.725C329.137 199.918 340.33 188.725 354.137 188.725H458.039C463.562 188.725 468.039 193.203 468.039 198.725V272.333C468.039 277.856 463.562 282.333 458.039 282.333H354.137C340.33 282.333 329.137 271.14 329.137 257.333V213.725Z" fill="#4592C7"/>
<circle cx="369.902" cy="235.529" r="22.6471" fill="white"/>
<path d="M314.706 0C328.513 5.57847e-05 339.706 11.1929 339.706 25V75.4902H309.51V40.667C309.51 32.3827 302.794 25.667 294.51 25.667H158.432C150.147 25.667 143.432 32.3827 143.432 40.667V75.4902H113.235V25C113.235 11.1929 124.428 0 138.235 0H314.706Z" fill="#4E4F52"/>
<g filter="url(#filter0_d_3_46)">
<path fill-rule="evenodd" clip-rule="evenodd" d="M77.3597 314.452C77.3744 308.51 80.7509 302.701 86.2506 296.198L54.4469 276.087C52.4417 275.217 52.4859 273.993 53.6507 272.548L60.3889 266.798C61.6127 266.046 62.9102 265.721 64.3109 266.105L103.56 272.74L136.264 237.324L59.9171 185.674C57.9856 184.538 57.8234 183.255 59.8139 181.766L70.8279 172.979L170.353 200.949L199.753 169.514C209.617 160.977 219.201 157.158 226.558 158.971C230.613 159.974 232.043 161.183 233.296 164.987C235.729 172.448 231.955 182.474 223.034 192.795L191.599 222.196L219.569 321.721L210.782 332.735C209.292 334.711 208.01 334.549 206.874 332.632L155.21 256.3L119.794 288.988L126.429 328.238C126.812 329.624 126.503 330.922 125.736 332.16L119.986 338.898C118.556 340.063 117.317 340.107 116.447 338.102L96.3357 306.298C89.804 311.813 83.9947 315.189 78.0232 315.189C77.4777 315.174 77.3597 314.983 77.3597 314.452Z" fill="#F9D545"/>
</g>
<path d="M83.0392 309.51C47.0152 308.494 28.8479 301.839 0 279.314L98.1373 385C80.0817 357.684 75.9416 341.303 83.0392 309.51Z" fill="#F9D545"/>
<path d="M0 279.314L98.1373 385H20C8.95432 385 0 376.046 0 365V279.314Z" fill="#F9D545"/>
<defs>
<filter id="filter0_d_3_46" x="50.8431" y="158.529" width="185.176" height="188.176" filterUnits="userSpaceOnUse" color-interpolation-filters="sRGB">
<feFlood flood-opacity="0" result="BackgroundImageFix"/>
<feColorMatrix in="SourceAlpha" type="matrix" values="0 0 0 0 0 0 0 0 0 0 0 0 0 0 0 0 0 0 127 0" result="hardAlpha"/>
<feOffset dy="5"/>
<feGaussianBlur stdDeviation="1"/>
<feComposite in2="hardAlpha" operator="out"/>
<feColorMatrix type="matrix" values="0 0 0 0 0 0 0 0 0 0 0 0 0 0 0 0 0 0 0.2 0"/>
<feBlend mode="normal" in2="BackgroundImageFix" result="effect1_dropShadow_3_46"/>
<feBlend mode="normal" in="SourceGraphic" in2="effect1_dropShadow_3_46" result="shape"/>
</filter>
</defs>
</svg>
